# xmcd
#
# Track frame offsets:
#	150
#	8185
#	29375
#	48923
#	66375
#	74940
#	93803
#	109650
#	128823
#	144385
#	164115
#	174185
#	190873
#	208453
#	226900
#	247808
#	263968
#
# Disc length: 3926 seconds
#
# Revision: 113653074
# Processed by: cddbd v1.5.1PL0 Copyright (c) Steve Scherf et al.
# Submitted via: EasyCDDAExtractor 8.0.2.1
#
DISCID=f60f5411
DTITLE=Various Artist - Ryde or Die Vol. 3 - In The R We Trust
DYEAR=2001
DGENRE=Rap
TTITLE0=Swizz Beats - Intro
TTITLE1=Drag-On - Dirrty (Featuring Petey Pablo
TTITLE2=Jadakiss - They Ain't Ready (Featuring Bubba sparxx)
TTITLE3=Eve - U, Me and She
TTITLE4=Swizz Beats and Ice Pick - Cali Love (Skit)
TTITLE5=Styles - Eastide Ryders (Featuring Tha Eastsidaz)
TTITLE6=Fiend - Rock Bottom
TTITLE7=Drag-On - We Don't Give A F*** (Featuring Fiend)
TTITLE8=Fiend - Some South S*** (Featuring Ludacris and Yung Wun)
TTITLE9=Infa-Red and Cross - Street Team (Featuring Drag-On)
TTITLE10=Ice Pick and Roc Star - Put It In Your Hole (Skit)
TTITLE11=Styles - Shoot 'Em In Tha Head
TTITLE12=The Lox - Keep Hustlin'
TTITLE13=Infa-Red and Cross - Gonna Be Sumthin' (Featuring Aja)
TTITLE14=Dmx - Friend Of Mine
TTITLE15=Parle - Can't Let Go
TTITLE16=Ruff Ryders - All-Star Freestyle
EXTD=
EXTT0=
EXTT1=
EXTT2=
EXTT3=
EXTT4=
EXTT5=
EXTT6=
EXTT7=
EXTT8=
EXTT9=
EXTT10=
EXTT11=
EXTT12=
EXTT13=
EXTT14=
EXTT15=
EXTT16=
PLAYORDER=
